<?xml version="1.0" encoding="UTF-8" standalone="no"?>
<!-- Created with Inkscape (http://www.inkscape.org/) -->
<svg
   xmlns:dc="http://purl.org/dc/elements/1.1/"
   xmlns:cc="http://creativecommons.org/ns#"
   xmlns:rdf="http://www.w3.org/1999/02/22-rdf-syntax-ns#"
   xmlns:svg="http://www.w3.org/2000/svg"
   xmlns="http://www.w3.org/2000/svg"
   xmlns:xlink="http://www.w3.org/1999/xlink"
   xmlns:sodipodi="http://sodipodi.sourceforge.net/DTD/sodipodi-0.dtd"
   xmlns:inkscape="http://www.inkscape.org/namespaces/inkscape"
   width="744.09448819"
   height="1052.3622047"
   id="svg2"
   sodipodi:version="0.32"
   inkscape:version="0.46"
   sodipodi:docname="rocket.svg"
   inkscape:output_extension="org.inkscape.output.svg.inkscape">
  <defs
     id="defs4">
    <linearGradient
       id="linearGradient3441">
      <stop
         style="stop-color:#000000;stop-opacity:1;"
         offset="0"
         id="stop3443" />
      <stop
         style="stop-color:#b0b0b0;stop-opacity:1;"
         offset="1"
         id="stop3445" />
    </linearGradient>
    <linearGradient
       id="linearGradient2353">
      <stop
         style="stop-color:#ffff00;stop-opacity:1"
         offset="0"
         id="stop2355" />
      <stop
         style="stop-color:#ffff00;stop-opacity:0"
         offset="1"
         id="stop2357" />
    </linearGradient>
    <radialGradient
       cx="381.20657"
       cy="755.88708"
       r="106.76066"
       fx="381.20657"
       fy="755.88708"
       id="radialGradient3177"
       xlink:href="#linearGradient2353"
       gradientUnits="userSpaceOnUse"
       gradientTransform="matrix(1.727775,0,-5.892436e-7,0.630158,-525.5988,-452.8873)" />
    <linearGradient
       id="linearGradient2361">
      <stop
         style="stop-color:#ff0000;stop-opacity:0"
         offset="0"
         id="stop2363" />
      <stop
         style="stop-color:#c20000;stop-opacity:0.83333331"
         offset="1"
         id="stop2365" />
    </linearGradient>
    <radialGradient
       cx="438.06387"
       cy="732.89209"
       r="106.76066"
       fx="438.06387"
       fy="732.89209"
       id="radialGradient3180"
       xlink:href="#linearGradient2361"
       gradientUnits="userSpaceOnUse"
       gradientTransform="matrix(1.840136,3.575074e-3,-1.783926e-3,0.917882,-672.1506,-546.9808)" />
    <inkscape:perspective
       sodipodi:type="inkscape:persp3d"
       inkscape:vp_x="0 : 526.18109 : 1"
       inkscape:vp_y="0 : 1000 : 0"
       inkscape:vp_z="744.09448 : 526.18109 : 1"
       inkscape:persp3d-origin="372.04724 : 350.78739 : 1"
       id="perspective10" />
    <linearGradient
       inkscape:collect="always"
       xlink:href="#linearGradient3441"
       id="linearGradient3447"
       x1="163.49811"
       y1="338.50269"
       x2="324.79236"
       y2="267.79199"
       gradientUnits="userSpaceOnUse" />
    <linearGradient
       inkscape:collect="always"
       xlink:href="#linearGradient3441"
       id="linearGradient3459"
       x1="320.92807"
       y1="252.77005"
       x2="261.11713"
       y2="290.27277"
       gradientUnits="userSpaceOnUse" />
    <linearGradient
       inkscape:collect="always"
       xlink:href="#linearGradient3441"
       id="linearGradient3465"
       gradientUnits="userSpaceOnUse"
       x1="163.49811"
       y1="338.50269"
       x2="324.79236"
       y2="267.79199" />
    <linearGradient
       inkscape:collect="always"
       xlink:href="#linearGradient3441"
       id="linearGradient3468"
       gradientUnits="userSpaceOnUse"
       x1="163.49811"
       y1="338.50269"
       x2="331.86343"
       y2="274.86307" />
  </defs>
  <sodipodi:namedview
     id="base"
     pagecolor="#ffffff"
     bordercolor="#666666"
     borderopacity="1.0"
     gridtolerance="10000"
     guidetolerance="10"
     objecttolerance="10"
     inkscape:pageopacity="0.0"
     inkscape:pageshadow="2"
     inkscape:zoom="0.98994949"
     inkscape:cx="327.17583"
     inkscape:cy="582.41006"
     inkscape:document-units="px"
     inkscape:current-layer="layer1"
     showgrid="false"
     inkscape:window-width="1678"
     inkscape:window-height="1023"
     inkscape:window-x="0"
     inkscape:window-y="25" />
  <metadata
     id="metadata7">
    <rdf:RDF>
      <cc:Work
         rdf:about="">
        <dc:format>image/svg+xml</dc:format>
        <dc:type
           rdf:resource="http://purl.org/dc/dcmitype/StillImage" />
      </cc:Work>
    </rdf:RDF>
  </metadata>
  <g
     inkscape:label="Layer 1"
     inkscape:groupmode="layer"
     id="layer1">
    <g
       id="g2652"
       transform="matrix(-0.4562287,-0.3406376,0.3343703,-0.4647799,167.45429,561.65377)">
      <path
         id="fire:red"
         style="fill:url(#radialGradient3180);fill-opacity:1;stroke:none"
         d="M 121.68223,150.64173 L 124.15455,141.98861 C 91.65806,142.62724 40.89365,123.07823 40.89365,123.07823 C 37.03615,118.15815 32.304,117.73486 30.00463,102.12449 C 35.66895,109.09858 41.28442,106.69972 41.28442,106.69972 C 35.0241,94.541607 38.67329,74.653407 41.91658,73.031767 C 42.26094,81.989907 50.93361,82.886597 50.93361,82.886597 C 55.97859,81.419487 56.71985,62.475557 50.2571,58.219617 C 54.77088,53.705847 64.91884,62.121227 64.91884,62.121227 C 64.91884,62.121227 62.85965,55.670677 73.94088,45.988437 C 73.06593,61.356197 82.59279,58.385777 86.04858,54.926157 C 89.45587,51.128897 93.66051,41.205377 90.92851,31.645387 C 100.85907,34.797947 109.28113,47.717537 109.28113,47.717537 C 111.61621,36.095937 109.05445,24.055527 133.1918,3.1440899 C 133.63973,10.31553 139.17173,28.081227 149.11081,37.989987 C 161.19728,50.039417 161.74821,41.125687 162.82266,27.397257 C 167.08612,30.131827 178.96758,45.045407 179.92292,55.112367 C 180.08345,56.803997 188.32357,44.561057 191.16174,46.854507 C 188.68696,53.242367 189.60271,65.077467 195.72674,65.756687 C 195.72674,65.756687 201.05393,66.461387 202.45013,59.441207 C 204.65142,56.329817 215.65957,79.262517 204.02225,89.831497 C 195.85029,97.253247 214.73176,82.669487 221.69448,82.337927 C 213.58674,96.599037 226.51393,130.86216 222.03398,122.26271 C 219.89096,104.28789 194.89156,149.73583 158.48615,149.18206 C 140.7179,148.91173 123.75535,151.02602 121.68223,150.64173 z" />
      <path
         id="fire:yellow"
         style="fill:url(#radialGradient3177);fill-opacity:1;stroke:none"
         d="M 124.13283,130.8373 L 125.83015,124.89668 C 103.5204,125.33516 68.66931,111.91421 68.66931,111.91421 C 66.0211,108.53635 62.77231,108.24587 61.19368,97.528843 C 65.08244,102.31674 68.9376,100.66985 68.9376,100.66985 C 64.63978,92.322953 67.14495,78.669233 69.37158,77.556013 C 69.60802,83.706023 75.56201,84.321593 75.56201,84.321593 C 79.02554,83.314253 76.90775,70.308893 72.47092,67.386943 C 75.56967,64.288193 85.16319,70.065483 85.16319,70.065483 C 85.16319,70.065483 83.74947,65.637093 91.35721,58.990033 C 95.35312,65.764593 99.66934,66.439203 99.66934,66.439203 C 102.00855,63.832273 100.95516,56.362903 103.01954,49.142983 C 109.8372,51.307323 115.1266,58.371143 115.1266,58.371143 C 116.72974,50.392603 122.82715,48.429343 130.03448,31.576033 C 130.34196,36.499513 136.1399,52.009493 142.96326,58.812113 C 142.96326,58.812113 145.39678,48.784743 152.37699,46.226563 C 153.11909,49.976703 163.46085,59.655803 164.11672,66.567043 C 164.22686,67.728403 169.51075,58.888023 169.51075,58.888023 C 172.68732,63.970053 170.76219,72.095123 174.96649,72.561453 C 174.96649,72.561453 178.62368,73.045203 179.58224,68.225613 C 181.09347,66.089603 188.6508,81.833473 180.66152,89.089503 C 175.0513,94.184573 188.01392,84.172533 192.79398,83.944833 C 187.22775,93.735433 196.10262,117.25806 193.02709,111.35435 C 191.5558,99.014113 174.39302,130.21533 149.39981,129.83513 C 137.20135,129.64956 125.55603,131.10109 124.13283,130.8373 z" />
      <path
         id="OXYGEN"
         style="font-size:11.56772137px;font-style:normal;font-variant:normal;font-weight:bold;font-stretch:normal;line-height:100%;writing-mode:lr-tb;text-anchor:start;fill:#ffffff;fill-opacity:1;stroke:none;stroke-width:1px;stroke-linecap:butt;stroke-linejoin:miter;stroke-opacity:1;font-family:Bitstream Vera Sans"
         d="M 34.299104,127.4354 C 33.829274,127.08659 33.324634,127.0464 32.785484,127.31398 C 32.246664,127.58062 31.723184,128.13058 31.214704,128.96463 C 30.708354,129.79531 30.443784,130.53879 30.420744,131.19588 C 30.397354,131.854 30.618614,132.3631 31.084774,132.72238 C 31.553594,133.08367 32.057304,133.13125 32.596204,132.86438 C 33.135454,132.59651 33.660234,132.04161 34.170214,131.20052 C 34.682314,130.35595 34.950174,129.60434 34.973504,128.94643 C 34.996474,128.2896 34.771564,127.78615 34.299104,127.4354 M 35.203804,125.94755 C 36.166894,126.65494 36.697714,127.57784 36.795454,128.7188 C 36.891954,129.86326 36.544444,131.09053 35.753734,132.39828 C 34.965104,133.70258 34.076044,134.51826 33.087444,134.84256 C 32.100034,135.16354 31.131054,134.95237 30.179594,134.21146 C 29.230804,133.47256 28.707434,132.52828 28.608494,131.38117 C 28.511004,130.23954 28.850314,129.03448 29.627324,127.76357 C 30.441864,126.51623 31.289044,125.69348 32.276244,125.37315 C 33.267264,125.05148 34.243424,125.24213 35.203804,125.94755 M 39.998114,135.47213 C 39.998114,135.47213 39.537014,141.26044 39.537014,141.26044 C 39.537014,141.26044 37.946774,140.02408 37.946774,140.02408 C 37.946774,140.02408 38.242624,136.15328 38.242624,136.15328 C 38.242624,136.15328 35.190694,137.88102 35.190694,137.88102 C 35.190694,137.88102 33.592634,136.63822 33.592634,136.63822 C 33.592634,136.63822 38.150994,134.07629 38.150994,134.07629 C 38.150994,134.07629 38.554634,128.61935 38.554634,128.61935 C 38.554634,128.61935 40.167554,129.80493 40.167554,129.80493 C 40.167554,129.80493 39.895814,133.40336 39.895814,133.40336 C 39.895814,133.40336 42.787604,131.73054 42.787604,131.73054 C 42.787604,131.73054 44.408644,132.92177 44.408644,132.92177 C 44.408644,132.92177 39.998114,135.47213 39.998114,135.47213 M 44.577174,133.04556 C 44.577174,133.04556 46.266464,134.28677 46.266464,134.28677 C 46.266464,134.28677 45.853514,138.27608 45.853514,138.27608 C 45.853514,138.27608 48.995094,136.29134 48.995094,136.29134 C 48.995094,136.29134 50.688514,137.53518 50.688514,137.53518 C 50.688514,137.53518 45.513474,140.72462 45.513474,140.72462 C 45.513474,140.72462 43.407624,144.2692 43.407624,144.2692 C 43.407624,144.2692 41.880764,143.0824 41.880764,143.0824 C 41.880764,143.0824 43.978984,139.5597 43.978984,139.5597 C 43.978984,139.5597 44.577174,133.04556 44.577174,133.04556 M 52.036164,150.03278 C 51.495914,150.00931 50.981114,149.90602 50.491774,149.72315 C 50.002544,149.53985 49.539854,149.27841 49.103704,148.93916 C 48.117644,148.17222 47.570844,147.1675 47.462294,145.92776 C 47.354724,144.68788 47.701244,143.3918 48.502804,142.03684 C 49.313294,140.66695 50.247064,139.80961 51.305114,139.46193 C 52.364454,139.11068 53.411034,139.31253 54.443964,140.07019 C 54.840244,140.36667 55.192254,140.69638 55.492664,141.07144 C 55.795664,141.44881 56.046444,141.86305 56.245064,142.31421 C 56.245064,142.31421 55.191284,144.11094 55.191284,144.11094 C 55.019194,143.58755 54.807294,143.13549 54.555754,142.75443 C 54.306744,142.37573 54.016664,142.06375 53.685554,141.81826 C 53.071414,141.36292 52.451874,141.25859 51.827234,141.50428 C 51.207944,141.74685 50.629204,142.324 50.090644,143.23668 C 49.556534,144.14185 49.303344,144.96237 49.330764,145.69923 C 49.357704,146.43735 49.663794,147.03224 50.249314,147.48293 C 50.408254,147.60525 50.563224,147.70498 50.714214,147.78197 C 50.870134,147.85715 51.020534,147.90563 51.165464,147.92743 C 51.165464,147.92743 52.151904,146.24843 52.151904,146.24843 C 52.151904,146.24843 51.215614,145.53643 51.215614,145.53643 C 51.215614,145.53643 52.091234,144.04846 52.091234,144.04846 C 52.091234,144.04846 54.486604,145.85233 54.486604,145.85233 C 54.486604,145.85233 52.036164,150.03278 52.036164,150.03278 M 58.108704,142.98375 C 58.108704,142.98375 62.278614,146.04446 62.278614,146.04446 C 62.278614,146.04446 61.273224,147.77402 61.273224,147.77402 C 61.273224,147.77402 58.654384,145.83036 58.654384,145.83036 C 58.654384,145.83036 57.699494,147.46653 57.699494,147.46653 C 57.699494,147.46653 60.156814,149.30971 60.156814,149.30971 C 60.156814,149.30971 59.151554,151.03881 59.151554,151.03881 C 59.151554,151.03881 56.699874,149.17947 56.699874,149.17947 C 56.699874,149.17947 55.524904,151.19304 55.524904,151.19304 C 55.524904,151.19304 58.212534,153.2576 58.212534,153.2576 C 58.212534,153.2576 57.206504,154.98896 57.206504,154.98896 C 57.206504,154.98896 52.997954,151.72058 52.997954,151.72058 C 52.997954,151.72058 58.108704,142.98375 58.108704,142.98375 M 63.727504,147.10777 C 63.727504,147.10777 65.453404,148.37414 65.453404,148.37414 C 65.453404,148.37414 64.051684,156.1838 64.051684,156.1838 C 64.051684,156.1838 67.632844,149.97316 67.632844,149.97316 C 67.632844,149.97316 69.097924,151.04794 69.097924,151.04794 C 69.097924,151.04794 63.859014,160.15347 63.859014,160.15347 C 63.859014,160.15347 62.153204,158.82939 62.153204,158.82939 C 62.153204,158.82939 63.561394,151.00109 63.561394,151.00109 C 63.561394,151.00109 59.999134,157.15722 59.999134,157.15722 C 59.999134,157.15722 58.551234,156.03309 58.551234,156.03309 C 58.551234,156.03309 63.727504,147.10777 63.727504,147.10777" />
      <path
         id="FUEL"
         style="font-size:12px;font-style:normal;font-variant:normal;font-weight:bold;font-stretch:normal;text-align:start;line-height:125%;writing-mode:lr-tb;text-anchor:start;fill:#ffffff;fill-opacity:1;stroke:none;stroke-width:1px;stroke-linecap:butt;stroke-linejoin:miter;stroke-opacity:1;font-family:Bitstream Vera Sans"
         d="M 196.69466,143.56159 C 196.69466,143.56159 202.72681,140.0502 202.72681,140.0502 C 202.72681,140.0502 203.22484,141.91687 203.22484,141.91687 C 203.22484,141.91687 199.43066,144.15697 199.43066,144.15697 C 199.43066,144.15697 199.90912,145.96888 199.90912,145.96888 C 199.90912,145.96888 203.47451,143.8355 203.47451,143.8355 C 203.47451,143.8355 203.9727,145.70399 203.9727,145.70399 C 203.9727,145.70399 200.40995,147.86547 200.40995,147.86547 C 200.40995,147.86547 201.49934,151.99105 201.49934,151.99105 C 201.49934,151.99105 199.27257,153.38245 199.27257,153.38245 C 199.27257,153.38245 196.69466,143.56159 196.69466,143.56159 M 204.82268,138.83017 C 204.82268,138.83017 207.0579,137.52903 207.0579,137.52903 C 207.0579,137.52903 208.5798,143.16543 208.5798,143.16543 C 208.78952,143.94213 209.05553,144.42735 209.37775,144.6206 C 209.70265,144.8066 210.12937,144.73612 210.65797,144.40966 C 211.19039,144.08088 211.52779,143.68087 211.67007,143.21013 C 211.81519,142.7336 211.78337,142.11226 211.57459,141.34553 C 211.57459,141.34553 210.05948,135.78183 210.05948,135.78183 C 210.05948,135.78183 212.29468,134.48067 212.29468,134.48067 C 212.29468,134.48067 213.80473,139.99029 213.80473,139.99029 C 214.1613,141.29125 214.12003,142.44945 213.6812,143.46742 C 213.24267,144.48885 212.39506,145.39402 211.13813,146.18049 C 209.88506,146.96452 208.86407,147.22193 208.07485,146.95026 C 207.28539,146.67503 206.71023,145.86435 206.34966,144.52068 C 206.34966,144.52068 204.82268,138.83017 204.82268,138.83017 M 214.48342,133.2066 C 214.48342,133.2066 220.5156,129.6952 220.5156,129.6952 C 220.5156,129.6952 221.00049,131.42186 221.00049,131.42186 C 221.00049,131.42186 217.20636,133.66195 217.20636,133.66195 C 217.20636,133.66195 217.67231,135.34008 217.67231,135.34008 C 217.67231,135.34008 221.2377,133.20673 221.2377,133.20673 C 221.2377,133.20673 221.72281,134.93519 221.72281,134.93519 C 221.72281,134.93519 218.16004,137.09666 218.16004,137.09666 C 218.16004,137.09666 218.73324,139.16111 218.73324,139.16111 C 218.73324,139.16111 222.646,136.74893 222.646,136.74893 C 222.646,136.74893 223.13081,138.47464 223.13081,138.47464 C 223.13081,138.47464 216.99419,142.30908 216.99419,142.30908 C 216.99419,142.30908 214.48342,133.2066 214.48342,133.2066 M 222.61149,128.47518 C 222.61149,128.47518 224.84669,127.17403 224.84669,127.17403 C 224.84669,127.17403 226.83659,134.16546 226.83659,134.16546 C 226.83659,134.16546 230.74935,131.75327 230.74935,131.75327 C 230.74935,131.75327 231.22821,133.41502 231.22821,133.41502 C 231.22821,133.41502 225.09156,137.24949 225.09156,137.24949 C 225.09156,137.24949 222.61149,128.47518 222.61149,128.47518" />
    </g>
    <path
       style="fill:url(#linearGradient3468);fill-rule:evenodd;stroke:#000000;stroke-width:1px;stroke-linecap:butt;stroke-linejoin:miter;stroke-opacity:1;fill-opacity:1"
       d="M 312.01411,289.30299 C 254.65039,253.30855 161.5,422.21875 161.5,422.21875 C 161.49999,422.21876 98.343939,395.17682 77.125,431.46875 C 122.73042,424.60732 155.13661,455.75993 157.09375,457.6875 L 156.9375,457.90625 C 156.9375,457.90625 192.05454,481.56254 193.09375,529.125 C 225.24076,502.03409 187.84375,444.40624 187.84375,444.40625 C 188.82777,443.21279 369.37783,325.29743 312.01411,289.30299 z"
       id="path3451"
       sodipodi:nodetypes="cccccccz"
       inkscape:export-filename="/home/jjthrash/data/smoos/prog/launchor/res/icon.png"
       inkscape:export-xdpi="29.129999"
       inkscape:export-ydpi="29.129999" />
  </g>
</svg>
